HIERARCHY
ROOT mixamorig:Hips
{
	OFFSET 0.000000 77.714516 0.000000
	CHANNELS 6 Xposition Yposition Zposition Xrotation Yrotation Zrotation
	JOINT mixamorig:Spine
	{
		OFFSET 0.000000 14.685699 -1.734700
		CHANNELS 3 Xrotation Yrotation Zrotation
		JOINT mixamorig:Spine1
		{
			OFFSET 0.000000 17.133286 -2.023825
			CHANNELS 3 Xrotation Yrotation Zrotation
			JOINT mixamorig:Spine2
			{
				OFFSET 0.000000 19.580956 -2.312950
				CHANNELS 3 Xrotation Yrotation Zrotation
				JOINT mixamorig:Neck
				{
					OFFSET 0.000000 22.028564 -2.602067
					CHANNELS 3 Xrotation Yrotation Zrotation
					JOINT mixamorig:Head
					{
						OFFSET 0.000000 7.772293 1.167700
						CHANNELS 3 Xrotation Yrotation Zrotation
						JOINT mixamorig:HeadTop_End
						{
							OFFSET 0.000000 26.518204 3.983900
							CHANNELS 3 Xrotation Yrotation Zrotation
							End Site
							{
								OFFSET 0.000000 26.815781 0.000000
							}
						}
					}
				}
				JOINT mixamorig:LeftShoulder
				{
					OFFSET 11.646600 18.513336 -2.583780
					CHANNELS 3 Xrotation Yrotation Zrotation
					JOINT mixamorig:LeftArm
					{
						OFFSET 23.544209 -6.614426 0.036475
						CHANNELS 3 Xrotation Yrotation Zrotation
						JOINT mixamorig:LeftForeArm
						{
							OFFSET 22.756695 0.000000 -0.000001
							CHANNELS 3 Xrotation Yrotation Zrotation
							JOINT mixamorig:LeftHand
							{
								OFFSET 32.238304 0.000000 -0.000001
								CHANNELS 3 Xrotation Yrotation Zrotation
								JOINT mixamorig:LeftHandThumb1
								{
									OFFSET 4.391930 -2.771759 4.066533
									CHANNELS 3 Xrotation Yrotation Zrotation
									JOINT mixamorig:LeftHandThumb2
									{
										OFFSET 4.087418 -2.359879 2.359871
										CHANNELS 3 Xrotation Yrotation Zrotation
										JOINT mixamorig:LeftHandThumb3
										{
											OFFSET 4.044945 -2.335342 2.335349
											CHANNELS 3 Xrotation Yrotation Zrotation
											JOINT mixamorig:LeftHandThumb4
											{
												OFFSET 3.242561 -1.872101 1.872095
												CHANNELS 3 Xrotation Yrotation Zrotation
												End Site
												{
													OFFSET 2.876892 -1.863678 2.402885
												}
											}
										}
									}
								}
								JOINT mixamorig:LeftHandIndex1
								{
									OFFSET 13.080666 -0.495590 3.860911
									CHANNELS 3 Xrotation Yrotation Zrotation
									JOINT mixamorig:LeftHandIndex2
									{
										OFFSET 4.467804 0.000000 0.000000
										CHANNELS 3 Xrotation Yrotation Zrotation
										JOINT mixamorig:LeftHandIndex3
										{
											OFFSET 4.434097 0.000000 0.000000
											CHANNELS 3 Xrotation Yrotation Zrotation
											JOINT mixamorig:LeftHandIndex4
											{
												OFFSET 3.589699 0.000000 0.000000
												CHANNELS 3 Xrotation Yrotation Zrotation
												End Site
												{
													OFFSET 3.589706 0.000000 0.000200
												}
											}
										}
									}
								}
								JOINT mixamorig:LeftHandMiddle1
								{
									OFFSET 12.178093 0.000000 0.000000
									CHANNELS 3 Xrotation Yrotation Zrotation
									JOINT mixamorig:LeftHandMiddle2
									{
										OFFSET 5.491508 0.000000 0.000000
										CHANNELS 3 Xrotation Yrotation Zrotation
										JOINT mixamorig:LeftHandMiddle3
										{
											OFFSET 5.202805 0.000000 0.000000
											CHANNELS 3 Xrotation Yrotation Zrotation
											JOINT mixamorig:LeftHandMiddle4
											{
												OFFSET 4.456505 0.000000 0.000000
												CHANNELS 3 Xrotation Yrotation Zrotation
												End Site
												{
													OFFSET 4.456505 -0.000046 0.006499
												}
											}
										}
									}
								}
								JOINT mixamorig:LeftHandRing1
								{
									OFFSET 11.850945 -0.053970 -3.835439
									CHANNELS 3 Xrotation Yrotation Zrotation
									JOINT mixamorig:LeftHandRing2
									{
										OFFSET 4.691414 0.000000 0.000000
										CHANNELS 3 Xrotation Yrotation Zrotation
										JOINT mixamorig:LeftHandRing3
										{
											OFFSET 4.518303 0.000000 0.000000
											CHANNELS 3 Xrotation Yrotation Zrotation
											JOINT mixamorig:LeftHandRing4
											{
												OFFSET 3.568130 0.000000 0.000000
												CHANNELS 3 Xrotation Yrotation Zrotation
												End Site
												{
													OFFSET 3.568100 -0.000168 0.014599
												}
											}
										}
									}
								}
								JOINT mixamorig:LeftHandPinky1
								{
									OFFSET 10.491814 -0.458572 -7.033705
									CHANNELS 3 Xrotation Yrotation Zrotation
									JOINT mixamorig:LeftHandPinky2
									{
										OFFSET 4.452301 0.000000 0.000000
										CHANNELS 3 Xrotation Yrotation Zrotation
										JOINT mixamorig:LeftHandPinky3
										{
											OFFSET 3.536598 0.000000 0.000000
											CHANNELS 3 Xrotation Yrotation Zrotation
											JOINT mixamorig:LeftHandPinky4
											{
												OFFSET 2.823502 0.000000 0.000000
												CHANNELS 3 Xrotation Yrotation Zrotation
												End Site
												{
													OFFSET 2.823502 0.000000 0.000600
												}
											}
										}
									}
								}
							}
						}
					}
				}
				JOINT mixamorig:RightShoulder
				{
					OFFSET -11.646600 18.513351 -2.620334
					CHANNELS 3 Xrotation Yrotation Zrotation
					JOINT mixamorig:RightArm
					{
						OFFSET -23.544205 -6.614441 -0.036501
						CHANNELS 3 Xrotation Yrotation Zrotation
						JOINT mixamorig:RightForeArm
						{
							OFFSET -22.759399 0.000000 0.000001
							CHANNELS 3 Xrotation Yrotation Zrotation
							JOINT mixamorig:RightHand
							{
								OFFSET -32.238106 0.000000 0.000001
								CHANNELS 3 Xrotation Yrotation Zrotation
								JOINT mixamorig:RightHandThumb1
								{
									OFFSET -4.492897 -2.767944 4.026622
									CHANNELS 3 Xrotation Yrotation Zrotation
									JOINT mixamorig:RightHandThumb2
									{
										OFFSET -4.113335 -2.374832 2.374833
										CHANNELS 3 Xrotation Yrotation Zrotation
										JOINT mixamorig:RightHandThumb3
										{
											OFFSET -4.066299 -2.347672 2.347678
											CHANNELS 3 Xrotation Yrotation Zrotation
											JOINT mixamorig:RightHandThumb4
											{
												OFFSET -3.138756 -1.812164 1.812160
												CHANNELS 3 Xrotation Yrotation Zrotation
												End Site
												{
													OFFSET -2.613274 -1.789185 2.527684
												}
											}
										}
									}
								}
								JOINT mixamorig:RightHandIndex1
								{
									OFFSET -12.930191 -0.141510 3.700550
									CHANNELS 3 Xrotation Yrotation Zrotation
									JOINT mixamorig:RightHandIndex2
									{
										OFFSET -4.764015 0.000000 0.000000
										CHANNELS 3 Xrotation Yrotation Zrotation
										JOINT mixamorig:RightHandIndex3
										{
											OFFSET -4.419807 0.000000 0.000000
											CHANNELS 3 Xrotation Yrotation Zrotation
											JOINT mixamorig:RightHandIndex4
											{
												OFFSET -3.701851 0.000000 0.000000
												CHANNELS 3 Xrotation Yrotation Zrotation
												End Site
												{
													OFFSET -3.701797 0.000153 -0.018699
												}
											}
										}
									}
								}
								JOINT mixamorig:RightHandMiddle1
								{
									OFFSET -12.168388 0.000000 0.000001
									CHANNELS 3 Xrotation Yrotation Zrotation
									JOINT mixamorig:RightHandMiddle2
									{
										OFFSET -5.385834 0.000000 0.000000
										CHANNELS 3 Xrotation Yrotation Zrotation
										JOINT mixamorig:RightHandMiddle3
										{
											OFFSET -5.321609 0.000000 0.000000
											CHANNELS 3 Xrotation Yrotation Zrotation
											JOINT mixamorig:RightHandMiddle4
											{
												OFFSET -4.501015 0.000000 0.000000
												CHANNELS 3 Xrotation Yrotation Zrotation
												End Site
												{
													OFFSET -4.500992 -0.000168 0.011299
												}
											}
										}
									}
								}
								JOINT mixamorig:RightHandRing1
								{
									OFFSET -11.815239 0.302551 -3.905540
									CHANNELS 3 Xrotation Yrotation Zrotation
									JOINT mixamorig:RightHandRing2
									{
										OFFSET -4.583313 0.000000 0.000000
										CHANNELS 3 Xrotation Yrotation Zrotation
										JOINT mixamorig:RightHandRing3
										{
											OFFSET -4.612907 0.000000 0.000000
											CHANNELS 3 Xrotation Yrotation Zrotation
											JOINT mixamorig:RightHandRing4
											{
												OFFSET -3.358940 0.000000 0.000000
												CHANNELS 3 Xrotation Yrotation Zrotation
												End Site
												{
													OFFSET -3.358910 -0.000198 0.016799
												}
											}
										}
									}
								}
								JOINT mixamorig:RightHandPinky1
								{
									OFFSET -10.511444 -0.263382 -6.996516
									CHANNELS 3 Xrotation Yrotation Zrotation
									JOINT mixamorig:RightHandPinky2
									{
										OFFSET -4.477509 0.000000 0.000000
										CHANNELS 3 Xrotation Yrotation Zrotation
										JOINT mixamorig:RightHandPinky3
										{
											OFFSET -3.497902 0.000000 0.000000
											CHANNELS 3 Xrotation Yrotation Zrotation
											JOINT mixamorig:RightHandPinky4
											{
												OFFSET -2.797302 0.000000 0.000000
												CHANNELS 3 Xrotation Yrotation Zrotation
												End Site
												{
													OFFSET -2.797302 -0.000031 0.002200
												}
											}
										}
									}
								}
							}
						}
					}
				}
			}
		}
	}
	JOINT mixamorig:LeftUpLeg
	{
		OFFSET 13.580900 -8.149200 -1.796100
		CHANNELS 3 Xrotation Yrotation Zrotation
		JOINT mixamorig:LeftLeg
		{
			OFFSET 1.779603 -35.946629 -2.676069
			CHANNELS 3 Xrotation Yrotation Zrotation
			JOINT mixamorig:LeftFoot
			{
				OFFSET -1.779600 -26.652353 -2.057156
				CHANNELS 3 Xrotation Yrotation Zrotation
				JOINT mixamorig:LeftToeBase
				{
					OFFSET -1.192457 -6.581663 13.403625
					CHANNELS 3 Xrotation Yrotation Zrotation
					JOINT mixamorig:LeftToe_End
					{
						OFFSET -0.351332 -0.163919 5.937958
						CHANNELS 3 Xrotation Yrotation Zrotation
						End Site
						{
							OFFSET -0.351332 -0.163919 5.937958
						}
					}
				}
			}
		}
	}
	JOINT mixamorig:RightUpLeg
	{
		OFFSET -13.580900 -8.149200 -2.255300
		CHANNELS 3 Xrotation Yrotation Zrotation
		JOINT mixamorig:RightLeg
		{
			OFFSET -1.779582 -35.946686 -2.316831
			CHANNELS 3 Xrotation Yrotation Zrotation
			JOINT mixamorig:RightFoot
			{
				OFFSET 1.779588 -26.652205 -2.090130
				CHANNELS 3 Xrotation Yrotation Zrotation
				JOINT mixamorig:RightToeBase
				{
					OFFSET 1.192391 -6.582412 13.372187
					CHANNELS 3 Xrotation Yrotation Zrotation
					JOINT mixamorig:RightToe_End
					{
						OFFSET 0.351304 -0.164246 5.913598
						CHANNELS 3 Xrotation Yrotation Zrotation
						End Site
						{
							OFFSET 0.351304 -0.164246 5.913598
						}
					}
				}
			}
		}
	}
}
MOTION
Frames: 4
Frame Time: 0.016667
0.059752 49.865097 5.252571 -31.556119 -2.366696 0.420520 8.163866 0.805945 -1.233938 16.328370 1.413493 -2.116448 16.328368 1.413493 -2.116449 18.834764 -1.792195 -1.957887 -14.251875 -12.483149 9.728239 0.000000 0.000001 -0.000000 0.763972 3.363739 -12.626079 15.998577 -26.043933 -51.503188 -0.271858 -57.485877 -0.034451 3.461097 19.835583 17.485976 -8.375648 -11.419717 22.614355 3.041919 -4.465142 15.093856 -0.000005 0.000001 -0.000009 0.000000 0.000001 0.000005 4.506634 9.589953 -30.211808 0.296762 1.134549 -47.340932 0.000005 -0.000004 0.000010 0.000001 -0.000001 0.000001 8.705130 4.844185 -39.740653 -0.797415 -2.105084 -33.773154 -0.000005 -0.000009 0.000005 -0.000001 -0.000002 0.000001 -1.596478 16.126025 -44.841032 -1.071160 -3.579005 -38.778194 -0.000007 -0.000008 0.000000 -0.000000 -0.000003 -0.000005 -2.505814 10.242348 -48.577962 -2.064971 -7.683455 -46.109846 0.000000 0.000008 0.000001 -0.000001 0.000001 -0.000001 0.901689 -1.552552 16.837116 6.229004 28.018431 47.494721 2.961554 76.411908 -3.053669 78.952253 24.698391 -29.009623 -4.933615 -3.839429 -10.210317 2.321138 -6.714490 -2.170911 0.000005 0.000003 0.000004 -0.000001 0.000002 0.000003 -3.537928 1.873446 23.721867 0.448641 -1.786213 38.219280 -0.000002 -0.000002 0.000004 -0.000000 0.000001 0.000001 -0.769864 -2.130301 16.377829 -0.813762 1.753995 39.422284 0.000010 0.000000 0.000004 0.000001 0.000002 0.000002 -0.159827 -3.888176 17.278963 -0.609895 3.171352 25.740230 -0.000001 -0.000005 -0.000004 -0.000001 -0.000000 -0.000001 3.335814 -6.870369 19.343181 -0.265779 5.256924 13.655008 -0.000000 0.000001 0.000001 0.000000 0.000000 0.000001 -50.701976 -7.177017 18.458122 96.230160 -6.885618 -2.394621 7.429652 -5.723921 -9.274735 -23.534095 -0.341201 3.559276 -0.000000 0.000000 -0.000000 -54.400971 4.612516 -18.587219 92.343543 5.011716 2.557639 11.582435 4.069371 -2.179748 -13.722716 -0.330903 2.019919 0.000001 -0.000001 -0.000000 
0.076456 49.900337 5.314957 -31.655632 -2.405419 0.384507 8.173921 0.780090 -1.219651 16.348112 1.355882 -2.091744 16.348111 1.355882 -2.091744 19.316972 -1.782862 -2.155650 -14.120345 -12.271431 9.636617 -0.000001 -0.000000 0.000000 0.753750 3.460008 -12.415262 16.100013 -26.402363 -51.642425 -0.275791 -57.177836 -0.036137 3.046964 19.615002 17.799854 -8.266552 -11.001241 22.577223 3.054534 -4.375778 15.019287 -0.000006 -0.000003 -0.000011 0.000001 -0.000001 -0.000000 4.517962 9.635701 -30.142509 0.298272 1.135633 -47.424595 0.000004 -0.000005 0.000010 -0.000003 -0.000002 -0.000001 8.677037 4.886012 -39.643589 -0.803006 -2.113464 -33.896320 -0.000007 -0.000009 0.000004 0.000004 0.000002 0.000002 -1.609392 16.072511 -44.729338 -1.077023 -3.586273 -38.888287 -0.000008 -0.000011 0.000001 -0.000000 0.000002 0.000001 -2.543770 10.210044 -48.402282 -2.075364 -7.693188 -46.232758 0.000002 0.000006 -0.000001 0.000001 0.000001 -0.000002 0.878332 -1.354986 16.584271 6.279742 28.292582 47.346977 2.875408 76.203068 -2.990980 78.596168 24.472348 -29.150359 -4.976222 -3.855189 -10.190805 2.375094 -6.825018 -2.175208 0.000007 0.000004 0.000005 0.000001 0.000002 0.000001 -3.574414 1.748748 23.914825 0.451895 -1.790203 38.353527 0.000004 0.000003 0.000003 0.000002 -0.000000 0.000001 -0.805066 -2.159522 16.630107 -0.817377 1.758380 39.514338 0.000008 0.000003 0.000003 -0.000000 -0.000000 0.000001 -0.176937 -3.884495 17.544009 -0.611252 3.174178 25.769394 0.000001 -0.000001 -0.000007 0.000001 0.000002 -0.000006 3.333258 -6.799149 19.563149 -0.268742 5.268765 13.725787 -0.000003 -0.000003 -0.000003 0.000001 -0.000004 -0.000000 -50.509375 -7.161188 18.510919 96.237666 -6.909819 -2.396779 7.379964 -5.753186 -9.142504 -23.671972 -0.341697 3.552295 0.000000 0.000000 0.000000 -54.309286 4.583530 -18.642008 92.354287 5.053306 2.558602 11.867515 4.181252 -2.094520 -14.092489 -0.320763 1.857820 -0.000000 0.000001 -0.000000 
0.088217 49.938606 5.376324 -31.746685 -2.462854 0.329420 8.170832 0.763633 -1.201290 16.341707 1.316643 -2.058992 16.341706 1.316642 -2.058990 19.624597 -1.766837 -2.260526 -13.967285 -12.026775 9.482860 -0.000000 -0.000001 0.000000 0.744953 3.533429 -12.241492 16.207658 -26.685105 -51.785705 -0.278784 -56.890063 -0.037434 2.700452 19.413076 18.041315 -8.168846 -10.629657 22.529499 3.067202 -4.286276 14.944777 -0.000007 -0.000004 -0.000015 0.000000 0.000004 -0.000001 4.528931 9.681640 -30.073179 0.299796 1.136720 -47.508323 0.000005 -0.000010 0.000006 0.000000 -0.000001 0.000002 8.648929 4.927830 -39.546485 -0.808653 -2.121800 -34.019502 -0.000008 -0.000007 0.000008 0.000003 0.000001 0.000001 -1.622081 16.018976 -44.617678 -1.082929 -3.593543 -38.998345 -0.000009 -0.000013 0.000002 -0.000002 -0.000001 -0.000004 -2.581234 10.177235 -48.226668 -2.085782 -7.702929 -46.355712 0.000003 0.000008 -0.000000 -0.000000 0.000001 -0.000002 0.857480 -1.161944 16.363339 6.362627 28.542882 47.182161 2.799152 76.035408 -2.938704 78.345774 24.283558 -29.201982 -5.018936 -3.870907 -10.171460 2.429032 -6.935548 -2.179406 0.000006 0.000000 0.000003 -0.000003 0.000007 0.000001 -3.610223 1.623884 24.107607 0.455171 -1.794297 38.487761 -0.000002 0.000001 0.000006 -0.000003 -0.000000 -0.000002 -0.839980 -2.189039 16.882409 -0.820996 1.762799 39.606365 0.000007 0.000003 0.000005 -0.000002 0.000000 0.000000 -0.193935 -3.880817 17.809078 -0.612622 3.177027 25.798559 -0.000001 -0.000004 -0.000004 -0.000000 0.000004 0.000001 3.330333 -6.727829 19.783079 -0.271715 5.280632 13.796580 -0.000001 0.000003 -0.000000 -0.000001 0.000001 -0.000001 -50.329963 -7.138757 18.607986 96.260704 -6.930039 -2.397862 7.349489 -5.780850 -9.020609 -23.816431 -0.343887 3.564865 -0.000000 -0.000000 -0.000000 -54.224421 4.632102 -18.578142 92.356664 5.069501 2.557674 12.218786 4.250217 -1.926726 -14.478946 -0.310828 1.705989 0.000001 0.000001 -0.000000 
0.085219 49.984566 5.433125 -31.844476 -2.528300 0.256171 8.160605 0.754078 -1.179471 16.321009 1.289579 -2.018624 16.321005 1.289579 -2.018622 19.810156 -1.743770 -2.291799 -13.816653 -11.765020 9.281831 -0.000001 -0.000000 -0.000000 0.737224 3.585929 -12.097479 16.316268 -26.901036 -51.928333 -0.280751 -56.623067 -0.038280 2.408912 19.234924 18.225530 -8.060676 -10.207230 22.440066 3.079861 -4.196648 14.870287 -0.000001 -0.000003 -0.000009 -0.000001 -0.000001 0.000001 4.539606 9.727734 -30.003761 0.301287 1.137810 -47.592044 0.000004 -0.000010 0.000007 0.000001 -0.000002 -0.000001 8.620724 4.969657 -39.449352 -0.814261 -2.130138 -34.142647 -0.000005 -0.000004 0.000008 0.000001 -0.000002 -0.000000 -1.634565 15.965443 -44.506028 -1.088818 -3.600788 -39.108403 -0.000008 -0.000011 0.000002 0.000000 0.000000 -0.000000 -2.618296 10.143945 -48.051180 -2.096241 -7.712644 -46.478648 0.000006 0.000006 -0.000003 0.000001 0.000000 0.000001 0.838914 -0.972652 16.168649 6.461535 28.774218 47.011294 2.728292 75.889241 -2.892101 78.171645 24.128207 -29.187540 -5.061750 -3.886603 -10.152329 2.482991 -7.046079 -2.183482 0.000006 -0.000004 0.000004 -0.000000 0.000001 0.000001 -3.645213 1.498777 24.300148 0.458470 -1.798290 38.621995 -0.000000 -0.000000 0.000003 -0.000000 -0.000001 0.000001 -0.874554 -2.218830 17.134639 -0.824644 1.767160 39.698436 0.000009 0.000003 0.000006 -0.000000 -0.000000 0.000000 -0.210809 -3.877199 18.074146 -0.613996 3.179857 25.827708 0.000001 -0.000006 -0.000005 -0.000001 -0.000003 -0.000000 3.327002 -6.656424 20.002870 -0.274707 5.292454 13.867373 0.000001 -0.000003 0.000001 0.000003 0.000002 0.000001 -50.161903 -7.125830 18.729069 96.318556 -6.891501 -2.392885 7.389985 -5.807616 -8.965262 -24.004275 -0.352186 3.644491 -0.000000 -0.000000 -0.000000 -54.181510 4.722566 -18.406533 92.371868 5.037048 2.552313 12.774115 4.284095 -1.747433 -14.929870 -0.304522 1.583338 0.000001 -0.000000 -0.000000 
